<?xml version="1.0" encoding="utf-8"?>
<!-- Generator: Adobe Illustrator 26.0.1, SVG Export Plug-In . SVG Version: 6.00 Build 0)  -->
<svg version="1.1" id="Layer_1" xmlns="http://www.w3.org/2000/svg" xmlns:xlink="http://www.w3.org/1999/xlink" x="0px" y="0px"
	 viewBox="0 0 32 32" style="enable-background:new 0 0 32 32;" xml:space="preserve">
<style type="text/css">
	.st0{fill:#B74E4E;}
	.st1{fill:url(#SVGID_1_);}
	.st2{fill:url(#SVGID_00000075855616501785310710000007943013719234747822_);}
	.st3{fill:url(#SVGID_00000018930779241702871830000013256849472376328839_);}
</style>
<g>
	<linearGradient id="SVGID_1_" gradientUnits="userSpaceOnUse" x1="4.423" y1="14.6194" x2="27.577" y2="14.6194">
		<stop  offset="0.0145" style="stop-color:#3D58FC"/>
		<stop  offset="0.0171" style="stop-color:#3D5AFC"/>
		<stop  offset="0.0725" style="stop-color:#4679FD"/>
		<stop  offset="0.1324" style="stop-color:#4D93FD"/>
		<stop  offset="0.1987" style="stop-color:#53A7FE"/>
		<stop  offset="0.274" style="stop-color:#57B5FE"/>
		<stop  offset="0.3658" style="stop-color:#59BEFE"/>
		<stop  offset="0.5212" style="stop-color:#5AC0FE"/>
		<stop  offset="0.584" style="stop-color:#57B6FB"/>
		<stop  offset="0.6922" style="stop-color:#509AF2"/>
		<stop  offset="0.8328" style="stop-color:#456DE5"/>
		<stop  offset="0.9988" style="stop-color:#352ED2"/>
		<stop  offset="1" style="stop-color:#352ED2"/>
		<stop  offset="1" style="stop-color:#3C54FC"/>
	</linearGradient>
	<path class="st1" d="M27.58,6.07c-2-0.13-3.62-0.31-4.76-0.45c-1.87-0.23-4.43-0.6-6.95-0.36c-0.19,0.02-0.35,0.04-0.51,0.06
		c-1.72,0.24-3.09,0.7-3.97,1.05c-0.83,0.36-2.02,0.98-3.21,2.04c-1.18,1.05-1.94,2.13-2.4,2.91c-0.43,0.71-1.05,1.96-1.27,3.64
		c-0.19,1.43,0.01,2.55,0.15,3.34c0.17,0.99,0.39,1.51,0.45,1.67c0.27,0.64,0.6,1.12,0.97,1.67c0.22,0.33,0.45,0.65,0.78,1.04
		c0.33,0.38,0.82,0.89,1.52,1.39c-0.14-0.22-0.28-0.43-0.42-0.65c-0.24-0.31-0.52-0.74-0.75-1.3c-0.31-0.75-0.39-1.4-0.42-1.88
		c-0.15-2.16,0.83-3.88,1.21-4.53c0.63-1.07,1.31-1.72,1.45-1.85c0.83-0.78,1.62-1.16,2.34-1.52c0.57-0.28,1.51-0.73,2.8-0.98
		c1.26-0.25,2.2-0.26,3.99-0.23c1.28,0.02,2.94,0.12,2.94,0.12c0,0,1.84-0.11,2.21-0.24C26.71,9.98,27.51,6.4,27.58,6.07z"/>
	
		<linearGradient id="SVGID_00000089570656626036049030000013977151696447665325_" gradientUnits="userSpaceOnUse" x1="8.6434" y1="19.9803" x2="26.7638" y2="19.9803">
		<stop  offset="0" style="stop-color:#5AC0FE"/>
		<stop  offset="0.4035" style="stop-color:#3D59FC"/>
		<stop  offset="0.4065" style="stop-color:#3D58FC"/>
		<stop  offset="0.4873" style="stop-color:#3C56FC"/>
		<stop  offset="0.9785" style="stop-color:#3C54FC"/>
		<stop  offset="1" style="stop-color:#352ED2"/>
	</linearGradient>
	<path style="fill:url(#SVGID_00000089570656626036049030000013977151696447665325_);" d="M12.99,13.5
		c-0.34,0.14-3.29,1.39-4.14,4.61c-0.63,2.41,0.32,4.38,0.58,4.88c0.35,0.6,1.19,1.84,2.77,2.76c1.6,0.93,3.1,1.05,3.8,1.06
		c0.97,0.04,2.45-0.01,4.15-0.52c1.65-0.49,2.88-1.23,3.67-1.79c0.41-0.29,0.87-0.64,1.33-1.06c0.45-0.41,0.83-0.81,1.15-1.18
		c0.3-0.42,0.46-0.65,0.46-0.65c0,0-0.32,0-0.92,0.01c-0.64,0.01-6.8-0.15-6.79-0.16c0,0,0.25,0,1.38,0.04l0,0
		c-4.64-0.1-5.92-0.88-5.92-0.88c-0.93-0.57-1.38-1.22-1.49-1.39c-0.21-0.36-0.76-1.37-0.67-2.76c0.09-1.42,0.8-2.38,1.06-2.7
		c0.22-0.21,0.44-0.42,0.67-0.64L12.99,13.5z"/>
</g>
</svg>
