<svg width="23" height="23" viewBox="0 0 23 23" fill="none" xmlns="http://www.w3.org/2000/svg">
<circle cx="11.5" cy="11.5" r="11" stroke="white"/>
<path d="M11.5 0.5C11.9011 0.5 12.3433 0.714899 12.8047 1.23535C13.2656 1.75522 13.7032 2.53624 14.0811 3.54395C14.8355 5.55574 15.3125 8.36847 15.3125 11.5C15.3125 14.6315 14.8355 17.4443 14.0811 19.4561C13.7032 20.4638 13.2656 21.2448 12.8047 21.7646C12.3433 22.2851 11.9011 22.5 11.5 22.5C11.0989 22.5 10.6567 22.2851 10.1953 21.7646C9.73441 21.2448 9.29684 20.4638 8.91895 19.4561C8.16453 17.4443 7.6875 14.6315 7.6875 11.5C7.6875 8.36847 8.16453 5.55574 8.91895 3.54395C9.29684 2.53624 9.73441 1.75522 10.1953 1.23535C10.6567 0.714899 11.0989 0.5 11.5 0.5Z" stroke="white"/>
<path d="M0.71875 11.5H22.2812" stroke="white" stroke-linecap="round"/>
</svg>
