<svg width="145" height="45" viewBox="0 0 145 45" fill="none" xmlns="http://www.w3.org/2000/svg">
<path d="M31.9003 36.288C30.6203 36.288 29.4283 36.056 28.3243 35.592C27.2363 35.128 26.2843 34.48 25.4683 33.648C24.6523 32.816 24.0123 31.84 23.5483 30.72C23.1003 29.6 22.8763 28.376 22.8763 27.048C22.8763 25.72 23.1003 24.496 23.5483 23.376C23.9963 22.24 24.6283 21.264 25.4443 20.448C26.2603 19.616 27.2123 18.976 28.3003 18.528C29.4043 18.064 30.6043 17.832 31.9003 17.832C33.1963 17.832 34.3563 18.048 35.3803 18.48C36.4203 18.912 37.3003 19.488 38.0203 20.208C38.7403 20.928 39.2523 21.728 39.5563 22.608L36.2683 24.192C35.9643 23.328 35.4283 22.616 34.6603 22.056C33.9083 21.48 32.9883 21.192 31.9003 21.192C30.8443 21.192 29.9163 21.44 29.1163 21.936C28.3163 22.432 27.6923 23.12 27.2443 24C26.8123 24.864 26.5963 25.88 26.5963 27.048C26.5963 28.216 26.8123 29.24 27.2443 30.12C27.6923 31 28.3163 31.688 29.1163 32.184C29.9163 32.68 30.8443 32.928 31.9003 32.928C32.9883 32.928 33.9083 32.648 34.6603 32.088C35.4283 31.512 35.9643 30.792 36.2683 29.928L39.5563 31.512C39.2523 32.392 38.7403 33.192 38.0203 33.912C37.3003 34.632 36.4203 35.208 35.3803 35.64C34.3563 36.072 33.1963 36.288 31.9003 36.288ZM49.0474 36.288C47.6394 36.288 46.3834 35.992 45.2794 35.4C44.1754 34.808 43.3034 34 42.6634 32.976C42.0394 31.936 41.7274 30.76 41.7274 29.448V18.12H45.4474V29.208C45.4474 29.912 45.5994 30.552 45.9034 31.128C46.2234 31.688 46.6554 32.128 47.1994 32.448C47.7434 32.768 48.3594 32.928 49.0474 32.928C49.7514 32.928 50.3674 32.768 50.8954 32.448C51.4394 32.128 51.8634 31.688 52.1674 31.128C52.4874 30.552 52.6474 29.912 52.6474 29.208V18.12H56.3674V29.448C56.3674 30.76 56.0474 31.936 55.4074 32.976C54.7834 34 53.9194 34.808 52.8154 35.4C51.7114 35.992 50.4554 36.288 49.0474 36.288ZM59.3106 36V18.12H66.8706C68.1026 18.12 69.1586 18.328 70.0386 18.744C70.9186 19.16 71.5906 19.76 72.0546 20.544C72.5186 21.312 72.7506 22.248 72.7506 23.352C72.7506 24.136 72.5346 24.888 72.1026 25.608C71.6706 26.312 70.9586 26.904 69.9666 27.384V25.56C70.9106 25.928 71.6386 26.368 72.1506 26.88C72.6626 27.392 73.0146 27.952 73.2066 28.56C73.3986 29.152 73.4946 29.776 73.4946 30.432C73.4946 32.192 72.9106 33.56 71.7426 34.536C70.5746 35.512 68.9506 36 66.8706 36H59.3106ZM63.0306 32.76H67.3026C68.0546 32.76 68.6546 32.544 69.1026 32.112C69.5506 31.68 69.7746 31.12 69.7746 30.432C69.7746 29.728 69.5506 29.16 69.1026 28.728C68.6546 28.296 68.0546 28.08 67.3026 28.08H63.0306V32.76ZM63.0306 24.84H67.1346C67.7106 24.84 68.1666 24.68 68.5026 24.36C68.8546 24.024 69.0306 23.584 69.0306 23.04C69.0306 22.496 68.8546 22.064 68.5026 21.744C68.1666 21.408 67.7106 21.24 67.1346 21.24H63.0306V24.84ZM74.5609 36L80.6089 18.12H85.5529L91.6009 36H87.5449L86.3449 32.352H79.7929L78.5929 36H74.5609ZM80.8249 29.112H85.3129L82.5769 20.664H83.5849L80.8249 29.112ZM93.459 36V18.12H96.315L105.915 30.768L104.379 31.128V18.12H108.099V36H105.219L95.787 23.256L97.179 22.896V36H93.459ZM111.271 36V18.12H123.296V21.36H114.992V25.416H122.816V28.656H114.992V32.76H123.296V36H111.271ZM124.084 36L129.94 27.048L124.084 18.12H128.356L133.06 25.272H130.972L135.652 18.12H139.924L134.092 27.048L139.924 36H135.652L130.972 28.824L133.06 28.848L128.356 36H124.084Z" fill="white"/>
<path d="M23.1479 16.8879C21.1479 16.7579 19.5279 16.5779 18.3879 16.4379C16.5179 16.2079 13.9579 15.8379 11.4379 16.0779C11.2479 16.0979 11.0879 16.1179 10.9279 16.1379C9.20789 16.3779 7.83789 16.8379 6.95789 17.1879C6.12789 17.5479 4.93789 18.1679 3.74789 19.2279C2.56789 20.2779 1.80789 21.3579 1.34789 22.1379C0.917886 22.8479 0.297886 24.0979 0.077886 25.7779C-0.112114 27.2079 0.0878856 28.3279 0.227886 29.1179C0.397886 30.1079 0.617886 30.6279 0.677886 30.7879C0.947886 31.4279 1.27789 31.9079 1.64789 32.4579C1.86789 32.7879 2.09789 33.1079 2.42789 33.4979C2.75789 33.8779 3.24789 34.3879 3.94789 34.8879C3.80789 34.6679 3.66789 34.4579 3.52789 34.2379C3.28789 33.9279 3.00789 33.4979 2.77789 32.9379C2.46789 32.1879 2.38789 31.5379 2.35789 31.0579C2.20789 28.8979 3.18789 27.1779 3.56789 26.5279C4.19789 25.4579 4.87789 24.8079 5.01789 24.6779C5.84789 23.8979 6.63789 23.5179 7.35789 23.1579C7.92789 22.8779 8.86789 22.4279 10.1579 22.1779C11.4179 21.9279 12.3579 21.9179 14.1479 21.9479C15.4279 21.9679 17.0879 22.0679 17.0879 22.0679C17.0879 22.0679 18.9279 21.9579 19.2979 21.8279C22.2779 20.7979 23.0779 17.2179 23.1479 16.8879Z" fill="url(#paint0_linear_707_204)"/>
<path d="M8.55777 24.3179C8.21777 24.4579 5.26777 25.7079 4.41777 28.9279C3.78777 31.3379 4.73777 33.3079 4.99777 33.8079C5.34777 34.4079 6.18777 35.6479 7.76777 36.5679C9.36777 37.4979 10.8678 37.6179 11.5678 37.6279C12.5378 37.6679 14.0178 37.6179 15.7178 37.1079C17.3678 36.6179 18.5978 35.8779 19.3878 35.3179C19.7978 35.0279 20.2578 34.6779 20.7178 34.2579C21.1678 33.8479 21.5478 33.4479 21.8678 33.0779C22.1678 32.6579 22.3278 32.4279 22.3278 32.4279C22.3278 32.4279 22.0078 32.4279 21.4078 32.4379C20.7678 32.4479 14.6078 32.2879 14.6178 32.2779C14.6178 32.2779 14.8678 32.2779 15.9978 32.3179C11.3578 32.2179 10.0778 31.4379 10.0778 31.4379C9.14777 30.8679 8.69777 30.2179 8.58777 30.0479C8.37777 29.6879 7.82777 28.6779 7.91777 27.2879C8.00777 25.8679 8.71777 24.9079 8.97777 24.5879C9.19777 24.3779 9.41777 24.1679 9.64777 23.9479L8.55777 24.3179Z" fill="url(#paint1_linear_707_204)"/>
<defs>
<linearGradient id="paint0_linear_707_204" x1="-0.00911411" y1="25.4373" x2="23.1449" y2="25.4373" gradientUnits="userSpaceOnUse">
<stop offset="0.0145" stop-color="#3D58FC"/>
<stop offset="0.0171" stop-color="#3D5AFC"/>
<stop offset="0.0725" stop-color="#4679FD"/>
<stop offset="0.1324" stop-color="#4D93FD"/>
<stop offset="0.1987" stop-color="#53A7FE"/>
<stop offset="0.274" stop-color="#57B5FE"/>
<stop offset="0.3658" stop-color="#59BEFE"/>
<stop offset="0.5212" stop-color="#5AC0FE"/>
<stop offset="0.584" stop-color="#57B6FB"/>
<stop offset="0.6922" stop-color="#509AF2"/>
<stop offset="0.8328" stop-color="#456DE5"/>
<stop offset="0.9988" stop-color="#352ED2"/>
<stop offset="1" stop-color="#3C54FC"/>
</linearGradient>
<linearGradient id="paint1_linear_707_204" x1="4.21117" y1="30.7982" x2="22.3316" y2="30.7982" gradientUnits="userSpaceOnUse">
<stop stop-color="#5AC0FE"/>
<stop offset="0.4035" stop-color="#3D59FC"/>
<stop offset="0.4065" stop-color="#3D58FC"/>
<stop offset="0.4873" stop-color="#3C56FC"/>
<stop offset="0.9785" stop-color="#3C54FC"/>
<stop offset="1" stop-color="#352ED2"/>
</linearGradient>
</defs>
</svg>
