<svg width="22" height="23" viewBox="0 0 22 23" fill="none" xmlns="http://www.w3.org/2000/svg">
<path d="M13.3251 20.0537C13.36 20.1413 13.4205 20.216 13.4986 20.2678C13.5768 20.3197 13.6688 20.3462 13.7622 20.3438C13.8557 20.3414 13.9463 20.3101 14.0216 20.2543C14.097 20.1985 14.1537 20.1208 14.1841 20.0315L20.1424 2.46165C20.1717 2.37971 20.1773 2.29104 20.1585 2.20601C20.1397 2.12098 20.0973 2.04311 20.0363 1.98151C19.9752 1.91991 19.898 1.87712 19.8137 1.85816C19.7294 1.8392 19.6415 1.84485 19.5603 1.87445L2.14364 7.8852C2.05518 7.9158 1.97811 7.97297 1.92279 8.04903C1.86746 8.1251 1.83653 8.21641 1.83413 8.31072C1.83174 8.40503 1.858 8.49782 1.90939 8.57664C1.96078 8.65546 2.03485 8.71654 2.12164 8.75167L9.39081 11.6923C9.6206 11.7851 9.82939 11.9239 10.0046 12.1003C10.1798 12.2767 10.3177 12.4871 10.4101 12.7188L13.3251 20.0537Z" stroke="white" stroke-width="2" stroke-linecap="round" stroke-linejoin="round"/>
<path d="M20.0332 1.98535L10.0049 12.101" stroke="white" stroke-width="2" stroke-linecap="round" stroke-linejoin="round"/>
</svg>
